<?xml version="1.0" standalone="no"?>
<!DOCTYPE svg PUBLIC "-//W3C//DTD SVG 20010904//EN"
 "http://www.w3.org/TR/2001/REC-SVG-20010904/DTD/svg10.dtd">
<svg version="1.0" xmlns="http://www.w3.org/2000/svg"
 width="16.000000pt" height="16.000000pt" viewBox="0 0 16.000000 16.000000"
 preserveAspectRatio="xMidYMid meet">
<metadata>
Created by potrace 1.11, written by Peter Selinger 2001-2013
</metadata>
<g transform="translate(0.000000,16.000000) scale(0.005333,-0.005333)"
fill="#000000" stroke="none">
<path d="M285 2181 c-91 -33 -126 -50 -120 -60 3 -6 19 -8 34 -5 25 5 30 2 40
-27 14 -42 15 -336 0 -378 -8 -23 -19 -34 -40 -38 -65 -13 -21 -23 101 -23 80
0 130 4 130 10 0 6 -10 10 -22 10 -13 0 -32 7 -42 15 -18 14 -20 29 -21 188
-2 161 0 173 19 195 52 59 138 74 180 33 20 -20 21 -33 24 -205 3 -176 3 -185
-17 -205 -12 -12 -32 -21 -46 -21 -14 0 -25 -4 -25 -10 0 -6 48 -10 125 -10
69 0 128 0 132 -1 4 0 9 4 11 10 2 6 -5 11 -16 11 -11 0 -29 8 -41 18 -21 16
-22 25 -22 190 0 154 2 176 18 194 25 28 68 49 110 53 29 2 42 -2 65 -25 l28
-28 0 -186 c0 -180 -1 -185 -22 -200 -12 -9 -30 -16 -40 -16 -9 0 -20 -4 -23
-10 -4 -6 42 -10 129 -10 84 0 136 4 136 10 0 6 -9 10 -19 10 -10 0 -28 8 -39
18 -20 16 -21 29 -24 207 -3 222 -13 255 -81 285 -66 30 -126 16 -197 -47
l-44 -40 -27 41 c-53 85 -161 82 -251 -8 -19 -19 -38 -33 -40 -30 -3 3 -4 25
-2 49 3 24 1 46 -3 48 -5 3 -31 -3 -58 -12z"/>
<path d="M1755 2165 c-82 -34 -97 -50 -45 -50 51 0 53 -8 53 -216 1 -188 0
-192 -22 -210 -13 -11 -32 -19 -42 -19 -10 0 -19 -4 -19 -10 0 -6 52 -10 135
-10 83 0 135 4 135 10 0 6 -11 10 -25 10 -14 0 -34 9 -45 20 -19 19 -20 33
-19 193 l0 172 30 24 c44 35 103 53 133 41 44 -16 50 -43 53 -232 3 -167 2
-179 -17 -198 -11 -11 -31 -20 -45 -20 -14 0 -25 -4 -25 -10 0 -6 52 -10 135
-10 83 0 135 4 135 10 0 6 -11 10 -24 10 -30 0 -56 24 -57 53 -1 12 -2 94 -3
182 -2 91 -8 175 -14 196 -18 52 -60 88 -108 93 -52 5 -92 -12 -148 -65 l-46
-42 0 57 c0 39 -4 56 -12 55 -7 0 -49 -16 -93 -34z"/>
<path d="M2475 2179 c-64 -24 -107 -65 -139 -131 -68 -141 -25 -307 98 -383
43 -26 58 -30 120 -29 73 1 97 9 153 51 99 75 133 255 73 374 -55 107 -192
160 -305 118z m111 -28 c24 -2 75 -67 94 -117 24 -66 31 -183 15 -248 -34
-129 -156 -149 -233 -36 -34 51 -46 106 -47 210 0 78 4 101 21 130 23 40 75
70 113 65 14 -1 31 -3 37 -4z"/>
<path d="M1080 2170 c0 -5 11 -12 25 -16 40 -10 66 -54 150 -259 43 -104 81
-194 85 -200 4 -5 10 -22 14 -37 3 -16 13 -28 20 -28 14 0 28 31 162 355 56
134 81 175 111 175 7 0 13 5 13 10 0 6 -37 10 -90 10 -75 0 -90 -3 -90 -16 0
-8 5 -12 10 -9 19 12 50 -6 50 -28 0 -12 -30 -95 -67 -185 l-67 -163 -38 93
c-21 51 -45 107 -52 123 -42 90 -49 116 -37 141 6 14 15 23 20 20 4 -3 17 1
27 9 17 13 4 14 -113 15 -81 0 -133 -4 -133 -10z"/>
<path d="M1195 1476 c-83 -26 -163 -92 -281 -231 -144 -168 -221 -225 -320
-233 -67 -6 -95 1 -134 34 -53 45 -76 105 -71 189 l1 30 25 -41 c70 -117 238
-73 239 62 1 106 -118 166 -226 113 -72 -35 -118 -125 -118 -232 0 -64 26
-177 41 -177 5 0 9 -6 9 -14 0 -19 73 -90 124 -120 74 -43 173 -67 291 -70
173 -4 366 57 530 169 39 26 72 51 75 54 3 3 26 26 52 50 l47 44 63 -55 c146
-125 275 -196 433 -237 119 -31 265 -33 370 -7 54 14 77 22 118 43 56 28 127
96 153 144 63 122 50 287 -28 372 -95 103 -278 55 -278 -73 0 -51 27 -97 71
-118 67 -33 136 -10 170 56 13 25 18 29 23 16 26 -68 -26 -184 -99 -218 -51
-24 -130 -20 -195 10 -55 25 -166 131 -270 255 -39 48 -83 89 -158 148 -37 30
-139 54 -200 47 -55 -7 -133 -38 -152 -61 -10 -12 -18 -10 -48 10 -77 50 -178
67 -257 41z"/>
</g>
</svg>
